<?xml version="1.0" encoding="utf-8"?>
<!-- Generator: Adobe Illustrator 26.0.1, SVG Export Plug-In . SVG Version: 6.00 Build 0)  -->
<svg version="1.1" id="Layer_1" xmlns="http://www.w3.org/2000/svg" xmlns:xlink="http://www.w3.org/1999/xlink" x="0px" y="0px"
	 viewBox="0 0 1458 719" style="enable-background:new 0 0 1458 719;" xml:space="preserve">
<g>
	<path d="M119,666.5c-0.4-0.6,11.7-10.8,26.7-22.6c37.8-29.8,57.9-45.6,89.1-70.1c20.6-16.2,26.6-21.5,26-22.9
		c-6.5-16.1-5.4-80.1,3-168.1c7-74,16.5-157.5,22.4-198.6c3.5-23.7,3.5-23.9,1.2-22.1c-1.4,1.1-1.9,1-2.5-0.6
		c-0.9-2.4,5-34.1,7.3-39.1c2.7-5.9,9.4-7.8,15.4-4.3c4.6,2.7,6,6.5,6.6,17.7c0.4,7.5-0.2,13.5-2.4,25.2
		c-10.7,55.2-26.5,179.9-31.9,250.4c-1.3,17-3.1,40.5-4.1,52.2c-2.6,32-3.3,50-2.4,61.3l0.9,10.3l5.6-11.7c5.5-11.6,6.2-12.4,9.7-11
		c4.4,1.7,0.6,36.6-5,45.6c-2.5,3.9-6.6,6.4-10.8,6.4c-1.5,0-11.7,6.7-24.5,16.2c-41.1,30.3-124.5,87-128.1,87
		C120.4,667.5,119.4,667,119,666.5z M688,636.1c-2.9-2.9-2.4-4.7,2.3-10c6-6.6,32.5-19.3,102.4-49c72.3-30.7,97.5-42.2,156.3-71.5
		c26.3-13.1,48-23.6,48.2-23.4c1.3,1.3,3.9,13.6,3.1,14.4c-3.4,3.3-136.1,70.6-169.5,86C793.2,600,722.6,631,714.3,633.9
		C703.5,637.7,690.7,638.7,688,636.1z M299.9,538.8c0.4-1.1,1.1-6.3,1.5-11.5l0.8-9.4l13.8-14.3c26.9-27.9,44.5-49.8,54.6-68.4
		c3.9-7.1,4.9-10.3,5.6-17.3c1-11-0.2-14.1-7.4-18c-10.3-5.6-19.8-6.9-50-7l-27.4-0.1l0-4c0-2.2,0.3-5.9,0.7-8.2l0.7-4.2l13.4-0.8
		c23.5-1.5,56.9,1.9,68.5,6.9c1.9,0.8,2-2.4,2-59.2v-60.1l2.8-2.6c3.7-3.4,9.5-2.9,12.4,1c1.7,2.3,2.5,7,3.9,24.6
		c1.5,18.6,1.5,28.3,0.4,66.5c-1.2,40.6-1.2,45.2,0.5,50.2c2.4,6.9,2.4,16.3,0.1,25.1c-1,3.8-1.6,7.4-1.4,8
		c0.2,0.6,8-14.4,17.4-33.5c9.9-20.1,18.4-36,20.4-37.9c2.6-2.6,4.4-3.3,7.9-3.3c6.4,0,10.5,5,14.6,17.4
		c6.2,18.8,12.3,33.1,17.8,41.3c8.8,13.4,9.1,13.4,9.2-0.5c0.1-13.1,2-21.9,7-32.4c4.4-9.2,9.5-15.9,15.3-20.1
		c9-6.5,20.2-3.6,22.3,5.6c0.6,2.8,1.1,3,5,2.7c7.5-0.7,8.8,1.9,9.6,19.7c0.5,9.6,1.4,16.5,2.5,19.1c2.3,5.3,6.4,10.3,8.3,10.3
		c3.6,0,15.8-20.2,21.5-35.7c1.9-5.3,4.6-10.8,5.9-12.2c2.7-2.9,8.3-3.4,11.4-1.1c4.2,3.2,4.6,5.9,3.2,19.4c-0.7,7.1-1,15-0.5,17.5
		l0.9,4.6l5.1-5.6c7-7.7,17.5-23.6,25.8-39c7.6-14.3,9.4-16.4,14.6-17.4c2.7-0.5,4.2,0,6.7,2.1c3.1,2.6,3.3,3.5,4.3,16.5
		c1.6,21.5,5.8,32.5,13.7,36.6c6.9,3.5,7.6,2.8,8.4-8.7c0.4-5.7,2.8-25.7,5.3-44.4c6.4-47.1,10-77.5,12.2-101.1
		c3.3-36.3,4.1-39,12.1-39c7.7,0,8.9,2.9,12.8,31.5c1.9,14.1,2.7,25.8,3,50.2c0.3,17.5,0.6,31.8,0.8,31.8c0.1,0,4.6-1.6,10-3.5
		c14-5.1,28.1-8.2,38.2-8.4c7.4-0.1,9.4,0.2,12.1,2.3c3.4,2.5,4.7,5.7,3,7.4c-0.6,0.6-4.3,1.3-8.2,1.6c-3.9,0.3-11.4,1.9-16.7,3.6
		c-11.3,3.5-32,11.9-32,12.9c0,0.4,2.1,2,4.7,3.6c6,3.7,13.6,13.3,23,29.1c7.5,12.6,14.5,20.2,20.6,22.3l3.2,1.1l-0.5-14
		c-0.8-21.7,3.9-40.2,13.1-51c6.6-7.8,18-10.2,26.5-5.8c2.5,1.3,6.8,2.5,9.5,2.7c9.7,0.5,11.4,5.1,9,25.5c-1,8.9,0.6,18.7,3.6,21.7
		c2.9,2.9,7,1.9,11.8-2.8c7.1-7.1,7.4-8.2,3.7-13.4c-12.2-16.8-9.6-45.2,5.1-54.6c2.4-1.5,4-3.5,4-4.9c0-3.8,3-6.9,8.5-9
		c9.4-3.6,37.1-16.7,37.4-17.8c0.2-0.6-1.5-3.8-3.7-7.1c-4.7-6.9-5.1-10.3-1.8-13.6c4.9-4.8,9.6-2.4,19.1,9.6l3.5,4.4l18.4-9.5
		c10.1-5.2,19-10,19.8-10.8c0.8-0.7,2.2-10.3,3.4-21.9l2-20.6l-9.3-17.2c-5.1-9.5-10-19.1-10.8-21.5c-1.9-5.5-0.4-10.5,3.3-11
		c3.4-0.5,7.8,4.3,15.2,16.4l5.8,9.5l5-0.6c7.2-0.8,8.8,1.8,8.8,14.5v9.7L995,220c3.6,5.9,6.9,10.7,7.3,10.7
		c1.3,0.1,28.2-17.5,44.7-29.3c13.9-9.9,17.5-11.9,21-11.9c5.5,0,9.2,3.4,9.2,8.4c0,2.1-3,10.6-6.8,19.2c-3.7,8.5-8.1,19.8-9.8,25.1
		c-3.2,10.4-9.4,40-10.6,50.4c-0.7,6.3-0.7,6.4,4.7,12.3c4.9,5.4,5.9,6,10.2,6c12.6,0.1,22.4,10.2,27.9,29.1
		c2.1,7,1.6,11.4-1.4,14.8c-3.6,4-13,1.6-16.9-4.3c-3.2-4.8-18.1-20-19.7-20c-0.8,0-3.5,1.5-6.1,3.4c-3.6,2.6-4.8,4.3-5.4,7.7
		c-1.2,7.3-2.8,30.8-5.9,81.8c-3.4,57.6-4.7,72.6-6.4,75.7c-1.3,2.4-6.9,5.7-9.7,5.7c-0.9,0-3.3-1.3-5.2-2.9
		c-2.9-2.4-4.5-6-9.4-21.5c-9.1-28.5-25.2-72.8-28.4-77.9c-0.3-0.5-3.8,2.4-7.7,6.5c-5.5,5.7-8.2,7.6-11.7,8.2
		c-4.1,0.8-4.8,0.5-7.9-2.9l-3.4-3.8l0.8-15.2l0.8-15.2l-6.2,2.1c-16.2,5.5-31.2-0.1-35.6-13.3c-0.7-2.2-1.6-4-1.9-4s-2.6,1.5-5,3.4
		c-5.7,4.5-15.5,8.9-21.6,9.9c-4.4,0.7-5.4,1.5-10,7.8c-8.1,11.3-15.7,15.6-27.5,15.6c-5.5,0-8.1-0.7-12.3-3c-4.9-2.9-5.3-2.9-6.4-1
		c-7,12.1-16.8,18.8-32,21.9c-21.5,4.3-36.9-4.6-52.2-30c-3.7-6.3-8.7-14-11.1-17.1c-4.8-6.4-11.2-10.9-11.9-8.4
		c-0.2,0.8-1.5,6.5-2.8,12.6c-1.3,6.1-3.8,14.6-5.5,18.9c-3.9,9.8-11.8,21.9-16.6,25.4c-3.4,2.5-3.6,3.1-3.3,8.6
		c0.3,5.7,0.2,5.9-2.7,6.3c-2.4,0.3-3.8-0.6-6.2-3.7c-2.9-3.7-3.6-4.1-9.1-4.1c-15.1,0-29.9-14-32.6-30.8c-0.4-2.6-1.1-4.7-1.5-4.7
		c-0.4,0-3.6,5-7.1,11c-6.7,11.7-18.7,25.6-24.7,28.7c-8.8,4.5-16.3,3.9-23-1.9L577,427l-5.5,6.2c-11.1,12.6-22,13.8-33.3,3.9
		l-5.2-4.6l-3.1,5.4c-4.1,7.1-10.4,13.7-15.8,16.4c-4.8,2.5-12.5,2.9-16.2,0.9c-1.3-0.7-5.6-2-9.4-2.9
		c-20.2-4.7-35.1-23.8-48.7-62.2c-0.7-1.9-3.3,3.5-12.5,25.2c-20,47-26.7,57.3-37.5,57.3c-3.7,0-10.2-5-11.9-9.2
		c-0.6-1.5-0.9-1.5-1.9,0.1c-9.3,14.4-44,50.6-66.4,69.1C299.6,540.8,299,541.2,299.9,538.8z M1030.2,327.7l2.7-25.2l-7.4-10.4
		c-4.1-5.7-11.5-16.6-16.6-24.1c-5.1-7.6-9.6-14.2-10.1-14.8c-0.5-0.5-4.5,0.9-8.8,3.3l-7.9,4.2l-3.7,23.1
		c-2.1,12.7-4.9,31.6-6.3,41.9l-2.5,18.8l6.3,11.9c3.5,6.6,6.7,12.2,7.2,12.5c0.5,0.3,8.4-6.6,17.7-15.3c9.2-8.7,17.3-16,17.9-16.2
		c1.3-0.5,1.3,1.2,0,12.1l-1,8.3l-12.8,13.5c-7.1,7.4-12.8,14.2-12.8,15c0,0.8,2.9,7.9,6.4,15.8c6.6,14.8,13.6,31.9,17.4,42.8
		l2.2,6.2l4.8-49.2C1025.3,375,1028.7,341.5,1030.2,327.7z M506.4,417.8c3.7-9.8,5.7-20,5.2-26l-0.4-4.6l-3.1,4.6
		c-1.7,2.5-3.9,7.7-4.9,11.4c-1.9,7.4-2.4,22.4-0.8,22.4C503.1,425.6,504.8,422.1,506.4,417.8z M693.8,391.5
		c3-7.1,7.2-23.1,6.2-23.8c-0.5-0.3-2,0.3-3.3,1.4c-1.7,1.5-2.8,5-4.2,13.3c-1,6.2-1.8,11.7-1.8,12.3
		C690.7,397,692,395.6,693.8,391.5z M799.9,393.2c6.5-7.2,12.4-22.7,13.7-36.2l0.8-8.4l-5,0.4c-4.2,0.3-5.4,1-7.5,4.1
		c-1.4,2.1-3.2,6.5-3.9,9.7c-1.8,7.8-2.9,32.9-1.4,32.9C797.1,395.8,798.6,394.7,799.9,393.2z M968.2,386.3c1.4-2.1,1.5-3.4,0.5-6.3
		c-1.9-5.4-3.1-4.4-3.5,2.7C964.7,389.5,965.4,390.4,968.2,386.3z M950.3,372c0-0.5,0.8-5.7,1.7-11.6l1.7-10.8l-7-12.7
		c-3.9-7-7.8-13.9-8.7-15.4l-1.7-2.7l-2.3,5c-5.5,12-8.1,21.2-8.7,31.5c-0.6,10.4-0.6,10.5,2.4,12.5c1.7,1.1,6.7,2.4,11.2,2.9
		c4.5,0.5,8.5,1.2,8.8,1.6C948.7,373.2,950.3,373.1,950.3,372z M888.7,354.7c11.1-8,21.6-23,26.5-38c2-6,6.2-11.6,9.7-12.8
		c1.3-0.4,0.9-1.7-1.6-5.9c-1.7-3-3.6-5.7-4.2-6c-0.5-0.3-6.9,1.8-14,4.8c-12.8,5.3-16.7,7.3-13.8,7.3c2.4,0,1.5,4.5-1.2,6.2
		c-1.4,0.9-4.8,2-7.6,2.4c-3.8,0.6-4.8,1.2-4.3,2.6c2.4,6.2,3.1,13.4,2.8,27.2C880.4,360.1,880.7,360.5,888.7,354.7z M866.2,342.8
		c0.1-1.4,0.5-5.6,0.9-9.2c0.5-3.7,0.5-6.9,0-7.2c-1.1-0.7-3.4,8.8-3.4,14.3C863.8,345.5,866,347.4,866.2,342.8z M702.8,339
		c2.1-1.6,2.3-3.3,2.6-22.6c0.2-14.4,0-20.3-0.8-19.2c-0.6,1-1.2,3.5-1.2,5.8c0,3.8-2.8,27.4-4,34.6
		C698.8,341.2,699.5,341.5,702.8,339z M958.8,313.6c0.4-4.9,1.7-16.5,2.8-25.8c1.1-9.3,1.6-16.9,1.1-16.9
		c-1.3,0-22.9,10.9-25.6,12.9c-2.1,1.5-1.8,2.1,4.7,13c3.8,6.3,8.6,14.6,10.8,18.5c2.2,3.9,4.3,7.2,4.6,7.2
		C957.7,322.4,958.4,318.4,958.8,313.6z M1043.2,238.8c1.6-6.9,2.9-13.1,2.9-13.8c0-0.7-3,0.7-6.6,3.2c-3.6,2.5-11.5,7.2-17.4,10.5
		c-7,3.9-10.5,6.5-10.2,7.5c0.3,0.8,5.6,9.2,11.8,18.5l11.2,17l2.7-15.2C1039.1,258.2,1041.6,245.7,1043.2,238.8z M987.5,239.6
		c1.8-1.3,1.7-1.7-0.3-4.3c-2.2-2.8-2.2-2.8-2.3-0.4c0,1.4-0.3,3.3-0.7,4.3C983.4,241.4,984.9,241.6,987.5,239.6z M1043.8,471.8
		c0-2.4,0.3-6.2,0.7-8.6l0.7-4.3l21.5-9.1c67.6-28.5,142.3-53,231.5-75.8c12.7-3.2,27.2-7.2,32.3-8.8c13.7-4.3,24-2.5,27.3,4.8
		c2.5,5.5-3.2,13-12,15.6c-2.1,0.6-12.6,2.9-23.4,5.2c-40.2,8.4-84.9,19.5-136.1,33.9c-37.4,10.5-86.1,27.7-123.8,43.9
		c-9.7,4.2-17.9,7.6-18.2,7.6C1044,476.1,1043.8,474.1,1043.8,471.8z M118.6,420c-8-2.8-14-7.7-17.5-14.6c-2.3-4.5-2.9-7.2-2.9-14.2
		c0-7.6,0.5-9.6,4.3-16.9c15.3-29.8,41.7-55.9,88.3-87.2c19-12.7,75.5-47.2,77.5-47.2c0.5,0,0.8,0.9,0.6,2c-0.2,1.1-0.7,4.4-1.1,7.3
		l-0.7,5.3l-13.5,7.7c-46.6,26.7-90.3,60.6-112.2,87.2c-14.3,17.3-25.5,38.8-23.8,45.6c2.4,9.6,26.9,9.1,71.7-1.5
		c18.2-4.3,48.9-10.5,59.9-12.1l5.7-0.8l-0.7,3.7c-0.4,2.1-0.8,5.6-0.8,7.9c0,2.3-0.4,4.8-0.9,5.5c-0.5,0.8-8.4,3-17.6,4.8
		c-9.2,1.9-27.9,6.3-41.5,9.7c-13.6,3.4-29.7,7-35.7,8C142.9,422.8,126.5,422.7,118.6,420z M1109.4,409.1c-5.9-4-7.5-8.5-5-13.7
		c2.6-5.5,8.1-8.7,14.9-8.7c4.5,0,6,0.6,8.8,3.3c4.1,4.1,5.3,8.4,3.4,12.8C1127.7,411.6,1117.5,414.6,1109.4,409.1z M1405.3,361.5
		c-5.6-2.4-6.9-12-2.2-16.7c3.8-3.8,10.8-3.9,14.3-0.2C1424.7,352.4,1415.2,365.6,1405.3,361.5z M311.7,221.8c0.4-3.6,1-7.4,1.3-8.3
		c0.3-0.9,11.3-8.1,24.5-15.8c51.3-30.1,76.1-47.2,93-63.9c13.6-13.4,18.9-22.2,19.9-32.7c1.8-19.3-17.5-34.2-52.5-40.6
		c-34.7-6.4-73.1-4.1-115,6.8c-42.5,11-69.7,26.1-78.7,43.5c-4.9,9.5-3.7,16.3,7.5,42.5c5.1,12,10.2,23.5,11.3,25.7
		c1.8,3.5,1.8,4.3,0.3,6.9c-1,1.8-2.9,3.1-4.6,3.3c-4,0.5-7.7-4.1-15-18.5c-3.2-6.3-8.5-15.9-11.9-21.3
		c-8.7-14.1-10.4-18.6-10.4-28.8c0-7.4,0.5-9.7,3.8-16.3c7.5-15.1,21.3-26.6,46.7-38.7c30.4-14.6,62.1-22.2,105.3-25.3
		c39.7-2.8,79,2.5,100.1,13.5c31.2,16.3,40.9,48.9,22.8,76.5c-12.8,19.5-38.1,37-115.3,79.9c-18,10-33,18.2-33.3,18.2
		C311.2,228.4,311.3,225.5,311.7,221.8z"/>
</g>
</svg>
